<svg xmlns="http://www.w3.org/2000/svg" viewBox="0 0 1024 1024">
  <rect width="1024" height="1024" rx="220" fill="#F8FBFF" />
  <rect x="16" y="16" width="992" height="992" rx="204" fill="none" stroke="#DDEAF3" stroke-width="24" />

  <g transform="translate(578 103) rotate(9 132 410)" fill="#0B1F3A">
    <rect x="62" y="150" width="226" height="666" rx="92" />
    <rect x="116" y="98" width="118" height="82" rx="28" />
    <rect x="92" y="62" width="166" height="48" rx="22" />
    <rect x="136" y="24" width="78" height="54" rx="18" />
    <rect x="58" y="804" width="232" height="54" rx="25" />
    <path d="M286 158c45 42 72 117 72 219v214c0 108-29 188-78 231 28-61 40-136 40-223V372c0-82-11-151-34-214Z" opacity="0.28" />
    <rect x="112" y="210" width="34" height="522" rx="17" fill="#FFFFFF" opacity="0.12" />
  </g>

  <text
    x="58"
    y="674"
    fill="#28C7D9"
    font-family="Avenir Next, Helvetica Neue, Arial, sans-serif"
    font-size="470"
    font-weight="500"
    letter-spacing="-30"
  >OK</text>
</svg>
